<svg data-name="Layer 1" xmlns="http://www.w3.org/2000/svg" width="1979.8" height="1500.8"><path fill="#e2e2e2" fill-rule="evenodd" d="m1979.8 630.3-63 111.9-19.4-10.7-19.3-10.7-3.5-1.9-6.2-3.4 62.9-111.9 6.2 3.4 3.5 2 19.4 10.7 19.4 10.6zM1616.6 23l-68.7 123.8-41.6-23L1575 0l41.6 23z"/><path fill="#e2e2e2" fill-rule="evenodd" d="m1654.1 43.6-68.7 123.9-11.7-6.4-22.4-12.4-3.4-1.9L1616.6 23l25.9 14.2 11.6 6.4zM1720 80l-68.8 123.8-65.8-36.3 68.7-123.9L1720 80z"/><path fill="#e2e2e2" fill-rule="evenodd" d="m1735.5 88.6-68.8 123.8-15.5-8.6L1720 80l15.5 8.6zM1797.4 122.8l-68.7 123.8-15.5-8.5 68.8-123.9 15.4 8.6zM1836.2 144.2 1767.5 268l-19.4-10.7 68.7-123.8 19.4 10.7zM1894.3 176.2l-68.7 123.9-19.4-10.7 68.7-123.9 19.4 10.7z"/><path fill="#e2e2e2" fill-rule="evenodd" d="M1913.7 186.9 1845 310.8l-19.4-10.7 68.7-123.9 19.4 10.7z"/><path fill="#e2e2e2" fill-rule="evenodd" d="m1933.1 197.6-68.8 123.9-19.3-10.7 68.7-123.9 19.4 10.7z"/><path fill="#e2e2e2" fill-rule="evenodd" d="m1952.4 208.3-68.7 123.9-19.4-10.7 68.8-123.9 19.3 10.7zM1806 306.9 1743.3 419l-19.4-10.7 62.7-112.1 19.4 10.7zM1786.6 296.2l-62.7 112.1-19.3-10.7 62.6-112.1 19.4 10.7zM1728.4 264.1l-62.6 112.1-19.3-10.7 62.5-112.1 19.4 10.7zM1709 253.4l-62.5 112.1-19.4-10.7 62.5-112.1 19.4 10.7zM1689.6 242.7l-62.5 112.1-19.4-10.7 62.5-112.1 19.4 10.7z"/><path fill="#e2e2e2" fill-rule="evenodd" d="m1670.2 232-62.5 112.1-19.3-10.7 62.4-112.1 19.4 10.7zM1650.8 221.3l-62.4 112.1-19.4-10.7 62.4-112.1 19.4 10.7z"/><path fill="#e2e2e2" fill-rule="evenodd" d="M1631.4 210.6 1569 322.7l-19.4-10.7 62.4-112.1 19.4 10.7z"/><path fill="#e2e2e2" fill-rule="evenodd" d="M1612 199.9 1549.6 312l-19.4-10.6 62.4-112.2 19.4 10.7z"/><path fill="#e2e2e2" fill-rule="evenodd" d="m1592.6 189.2-62.4 112.2-19.3-10.7-19.4-10.7-19.4-10.7-19.3-10.7-16.3-9 3.9-7 58.4-105.2 16.3 9 19.4 10.7 19.4 10.7 19.4 10.7 19.3 10.7zM1495.4 363l-63 111.9-19.3-10.7 62.9-111.9 19.4 10.7zM1611.6 427.2 1548.7 539l-19.4-10.7-19.4-10.7 63-111.8 19.4 10.7 19.3 10.7z"/><path fill="#e2e2e2" fill-rule="evenodd" d="m1631 437.9-62.9 111.8-19.4-10.7 62.9-111.8 19.4 10.7zM1650.4 448.6l-63 111.8-19.3-10.7 62.9-111.8 19.4 10.7zM1863.5 566.2 1800.6 678l-19.4-10.7-19.4-10.6 63-111.9 5.4 3 13.9 7.7 19.4 10.7z"/><path fill="#e2e2e2" fill-rule="evenodd" d="m1931.3 603.6-62.9 111.9-6.2-3.5-3.5-1.9-19.4-10.7-19.4-10.7-19.3-10.7 62.9-111.8 19.4 10.7 19.4 10.7 19.3 10.7 3.5 1.9 6.2 3.4zM1540 554.5l-62.1 110.3-19.3-10.8-19.4-10.7-19.3-10.7-19.4-10.8-9.1-5 61.4-110.5 9.7 5.4 19.4 10.7 19.4 10.7 19.3 10.7 19.4 10.7zM1423.8 490.3l-62 110.1-14.7-8.2 20.5-36.9 10.7-19.3 10.7-19.4 10.8-19.3 8.6-15.5 15.4 8.5z"/><path fill="#e2e2e2" fill-rule="evenodd" d="m1378.3 536-10.7 19.3-4.5-2.4-19.3-10.7-19.4-10.7-33.9-18.7 10.7-19.4 34 18.8 19.4 10.7 19.4 10.7 4.3 2.4z"/><path fill="#e2e2e2" fill-rule="evenodd" d="m1389 516.6-10.7 19.4-4.3-2.4-19.4-10.7-19.4-10.7-34-18.8 10.7-19.3 34.2 18.8 19.4 10.7 19.3 10.7 4.2 2.3z"/><path fill="#e2e2e2" fill-rule="evenodd" d="m1399.8 497.3-10.8 19.3-4.2-2.3-19.3-10.7-19.4-10.7-34.2-18.8 10.8-19.4 34.3 18.9 19.3 10.7 19.4 10.7 4.1 2.3z"/><path fill="#e2e2e2" d="m1389.1 1302 58-104.5 19.3 10.7-58 104.5zM1369.7 1291.3l58-104.5 19.2 10.7-58 104.5zM1292.3 1248.4l58-104.5 19.3 10.7-58 104.5zM1273 1237.8l57.9-104.5 19.3 10.7-58 104.5z"/><path fill="#e2e2e2" fill-rule="evenodd" d="m1330.9 1133.4-57.9 104.4-19.4-10.7 58-104.4h.1l19.2 10.7z"/><path fill="#e2e2e2" fill-rule="evenodd" d="m1311.6 1122.7-58 104.4-19.4-10.7 58-104.5 19.2 10.7h.1l.1.1z"/><path fill="#e2e2e2" d="m1214.8 1205.6 58-104.5 19.3 10.7-58 104.5z"/><path fill="#e2e2e2" d="m1176.1 1184.1 58-104.5 38.7 21.5-58 104.5z"/><path fill="#e2e2e2" fill-rule="evenodd" d="m1195.2 1058.3-57.9 104.4-19.4-10.7 58-104.5 19.3 10.8z"/><path fill="#e2e2e2" fill-rule="evenodd" d="m1175.9 1047.5-58 104.5-14.5-8.1-4.9-2.6 58-104.5 19.4 10.7zM1156.5 1036.8l-58 104.5-38.7-21.5-38.7-21.4-42.6-23.6 58-104.4 42.6 23.6 38.7 21.4 38.7 21.4zM1019 1147.8l-56.1 101-13.7-7.6-5.6-3.1 3.4-6.2 49.2-88.6 3.4-6.2 19.4 10.7zM1038.4 1158.5l-3.5 6.2-49.2 88.7-3.4 6.1-19.4-10.7 56.1-101 19.4 10.7z"/><path fill="#e2e2e2" fill-rule="evenodd" d="m1057.7 1169.3-56 101-19.4-10.8 3.4-6.1 49.2-88.7 3.5-6.2 19.3 10.8z"/><path fill="#e2e2e2" fill-rule="evenodd" d="m1077.1 1180-3.4 6.2-49.2 88.6-3.5 6.2-19.3-10.7 56-101 19.4 10.7z"/><path fill="#e2e2e2" fill-rule="evenodd" d="m1096.5 1190.7-56.1 101-19.4-10.7 3.5-6.2 49.2-88.6 3.4-6.2 19.4 10.7z"/><path fill="#e2e2e2" fill-rule="evenodd" d="m1115.8 1201.4-3.4 6.2-49.2 88.6-3.4 6.2-19.4-10.7 56.1-101 19.3 10.7z"/><path fill="#e2e2e2" fill-rule="evenodd" d="m1135.2 1212.1-56 101.1-17.3-9.6-2.1-1.2 3.4-6.2 49.2-88.6 3.4-6.2 2.1 1.2 17.3 9.5zM1154.6 1222.9l-3.5 6.2-49.1 88.6-3.5 6.2-19.3-10.7 56-101.1 19.4 10.8zM1212.7 1255l-56.1 101-19.3-10.7 3.4-6.2 49.2-88.6 3.4-6.2 19.4 10.7zM1208.3 1399.8l-3.4 6.2-49.2 88.6-3.5 6.2-15.5-8.6 56.1-101 15.5 8.6z"/><path fill="#e2e2e2" d="m1121.2 1483.6 56-101 15.6 8.6-56 101z"/><path fill="#e2e2e2" fill-rule="evenodd" d="m1177.3 1382.7-56.1 101-7.7-4.3-7.8-4.3 56.1-101 7.8 4.3 7.7 4.3z"/><path fill="#e2e2e2" d="m1090.2 1466.4 56-101 15.5 8.6-56 101z"/><path fill="#e2e2e2" fill-rule="evenodd" d="m1146.3 1365.5-56 101-15.5-8.6 3.4-6.2 49.2-88.6 3.4-6.2 15.5 8.6z"/><path fill="#e2e2e2" fill-rule="evenodd" d="m1130.8 1356.9-3.4 6.2-49.2 88.6-3.4 6.2-19.4-10.7 56-101 19.4 10.7z"/><path fill="#e2e2e2" fill-rule="evenodd" d="m1111.4 1346.2-56 101-19.4-10.7 3.5-6.2 49.1-88.6 3.5-6.2 19.3 10.7z"/><path fill="#e2e2e2" fill-rule="evenodd" d="m1039.5 1430.3-3.5 6.2-38.7-21.4-3.7-2.1 56.1-101 3.6 2 38.8 21.5-3.5 6.2-49.1 88.6z"/><path fill="#e2e2e2" fill-rule="evenodd" d="m1049.7 1312-56.1 101-35-19.4 3.4-6.2 49.2-88.6 3.4-6.2 35.1 19.4z"/><path fill="#e2e2e2" fill-rule="evenodd" d="m1014.6 1292.6-3.4 6.2-49.2 88.6-3.4 6.2-19.4-10.7 56-101 19.4 10.7z"/><path fill="#e2e2e2" fill-rule="evenodd" d="m995.2 1281.9-56 101-19.4-10.7 3.5-6.2 49.1-88.7 3.5-6.1 19.3 10.7zM232.1 1370.9l-56.3 100.9-19.3-10.8 56.3-100.8 19.3 10.7zM159.2 1419.8l-10.8 19.3-116.1-64.4 10.8-19.3 116.1 64.4z"/><path fill="#e2e2e2" fill-rule="evenodd" d="m170 1400.4-10.8 19.4-116.1-64.4 10.8-19.4 116.1 64.4zM197.3 1351.6l-27.3 48.8L53.9 1336l27.3-48.9 116.1 64.5zM421.8 1145.5l-56 101.5-19.4-10.8 56.1-101.4 19.3 10.7z"/><path fill="#e2e2e2" fill-rule="evenodd" d="m441.2 1156.3-56.1 101.4-19.3-10.7 56-101.5 19.4 10.8zM518.6 1199.3l-56.1 101.4-19.3-10.7 56.1-101.5 19.3 10.8z"/><path fill="#e2e2e2" fill-rule="evenodd" d="m538 1210-56.1 101.5-19.4-10.8 56.1-101.4L538 1210zM595.9 1242.2l-56 101.5-19.3-10.7 56.1-101.4 19.2 10.6zM615.4 1253.1l-56 101.4-19.5-10.8 56-101.5 19.5 10.9zM683.6 1290.9l-56 101.5-29.5-16.4 56-101.4 29.5 16.3z"/><path fill="#e2e2e2" fill-rule="evenodd" d="m713.4 1307.5-56 101.5-20.6-11.5-9.2-5.1 56-101.5 9.2 5.2 20.6 11.4z"/><path fill="#e2e2e2" fill-rule="evenodd" d="m742.7 1323.8-56.1 101.4-11.1-6.2-18.1-10 56-101.5 18.2 10.1 11.1 6.2z"/><path fill="#e2e2e2" fill-rule="evenodd" d="m770.3 1339.1-56.1 101.4-27.6-15.3 56.1-101.4 27.6 15.3zM572.4 1376.9l-55.9 101.3-19.5-10.8 55.9-101.3 19.5 10.8zM552.9 1366.1 497 1467.4l-19.2-10.7 55.9-101.2 19.2 10.6zM495 1334l-55.9 101.2-19.5-10.8 55.9-101.3L495 1334zM456.3 1312.5l-55.9 101.2-19.6-10.8 56-101.3 19.5 10.9zM417.6 1291l-55.9 101.2-19.6-10.8 56-101.3 19.5 10.9zM378.9 1269.5 323 1370.7l-19.6-10.8-19.1-10.6 55.9-101.3 19.1 10.6 19.6 10.9zM320.6 1237.1l-55.9 101.3-12.6-7-2.6-1.5 55.9-101.2 15.2 8.4z"/><path fill="#e2e2e2" fill-rule="evenodd" d="m305.4 1228.7-55.9 101.2-15.8-8.7 56-101.3 15.7 8.8zM273.2 1086.8l-17 30.7-62.6-34.8 16.9-30.7 62.7 34.8z"/><path fill="#e2e2e2" fill-rule="evenodd" d="m336.7 1098.2-27.1 48.9-53.4-29.6 17-30.7-62.7-34.8 10.1-18.2 116.1 64.4zM514.8 866.7l-.2.5-56.2 101-22.5-12.4 56.5-101.6 22.4 12.5zM600.7 914.5 544.3 1016l-7.7-4.3-5.2-2.9.3-.5 56.2-101 12.8 7.2zM618.5 924.4l-56.4 101.5-17.8-9.9 56.4-101.5 17.8 9.9zM639.4 936.1l-56.3 101.4-21-11.6 56.4-101.5 20.9 11.7zM743.9 994.3l-56.3 101.3-27.1-15.1 56.3-101.3 27.1 15.1zM794.2 1022.3 738 1123.6l-19.4-10.8 56.2-101.3 19.4 10.8zM809.6 1030.9l-56.2 101.2-15.4-8.5 56.2-101.3 15.4 8.6zM840.5 1048.1l-56.1 101.2-7.7-4.2-7.8-4.4 56.2-101.2 7.8 4.3 7.6 4.3zM856 1056.7l-56.1 101.2-15.5-8.6 56.1-101.2 15.5 8.6zM871.6 1065.4l-40.4 72.9-15.7 28.3-15.6-8.7 56.1-101.2 15.6 8.7zM847.8 1199.7 792 1300.5l-38.8-21.5 55.8-100.8 38.8 21.5z"/><path fill="#e2e2e2" fill-rule="evenodd" d="M809 1178.2 753.2 1279l-19.3-10.7 55.8-100.8 19.3 10.7z"/><path fill="#e2e2e2" fill-rule="evenodd" d="m789.7 1167.5-55.8 100.8-19.4-10.9 55.8-100.7 19.4 10.8zM692.8 1113.6 637 1214.4l-19.1-10.6 55.8-100.8 19.1 10.6zM673.7 1103l-55.8 100.8-19.7-10.9 55.9-100.7 19.6 10.8z"/><path fill="#e2e2e2" fill-rule="evenodd" d="m654.1 1092.2-55.9 100.7-30-16.7-1.1-.6 27.9-50.4 27.9-50.4 31.2 17.4z"/><path fill="#e2e2e2" fill-rule="evenodd" d="m595 1125.2-27.9 50.4-1.2-.7-6.4-3.6-23.3-12.9 55.8-100.7 23.4 12.9 7.5 4.2-27.9 50.4z"/><path fill="#e2e2e2" fill-rule="evenodd" d="m592 1057.7-55.8 100.7-15.5-8.6 55.8-100.8 15.5 8.7zM576.5 1049l-55.8 100.8-22.1-12.3 55.8-100.7 22.1 12.2zM554.4 1036.8l-55.8 100.7-16.7-9.2 56-100.7 16.5 9.2z"/><path fill="#e2e2e2" d="m462.6 1117.5 56-100.7 19.4 10.8-56 100.7z"/><path fill="#e2e2e2" fill-rule="evenodd" d="m499.2 1006.1-56 100.7-23.2-12.9 56-100.7 23.2 12.9zM452.8 980.3l-56 100.7-23.4-13 56-100.6 23.4 12.9zM385.1 1010.6l-7.3 13.2-51.1-28.4-5.6 10-64.9-36.1 12.9-23.2 116 64.5z"/><path fill="#e2e2e2" fill-rule="evenodd" d="m395.9 991.2-10.8 19.4-116-64.5 10.8-19.4 116 64.5z"/><path fill="#e2e2e2" d="m279.9 926.7 10.8-19.4 116 64.5-10.8 19.4z"/><path fill="#e2e2e2" fill-rule="evenodd" d="m428.2 933.1-21.5 38.8-116.1-64.6 21.6-38.7 116 64.5zM709.2 637.3l-57.6 103.8-23.2-12.9L686 624.4l23.2 12.9z"/><path fill="#e2e2e2" fill-rule="evenodd" d="M732.4 650.2 674.8 754l-23.2-12.9 57.6-103.8 23.2 12.9zM751.5 660.8l-57.4 104-19.3-10.8 57.6-103.8 19.1 10.6z"/><path fill="#e2e2e2" fill-rule="evenodd" d="m771.1 671.7-57.6 103.9-19.4-10.8 57.4-104 19.6 10.9z"/><path fill="#e2e2e2" fill-rule="evenodd" d="m792.8 683.7-57.7 103.9-21.6-12 57.6-103.9 21.7 12zM823.8 700.9 766 804.8l-30.9-17.2 57.7-103.9 31 17.2z"/><path fill="#e2e2e2" fill-rule="evenodd" d="m843.1 711.6-57.7 104-19.4-10.8 57.8-103.9 19.3 10.7zM862.4 722.4l-57.7 104-19.3-10.8 57.7-104 19.3 10.8zM882.2 733.4l-57.9 103.9-5.9-3.3-13.7-7.6 57.7-104 19.8 11zM918.5 753.5l-57.7 104.1-16.3-9 57.8-104.1 16.2 9z"/><path fill="#e2e2e2" fill-rule="evenodd" d="m938 764.4-58 103.9-19.2-10.7 57.7-104.1 19.5 10.9z"/><path fill="#e2e2e2" fill-rule="evenodd" d="m976.8 785.9-58.1 104-38.7-21.6 58-103.9 38.8 21.5zM1015.6 807.4 973 883.5l-15.5-8.6-12.3 22.1-3.2 5.8-3.9-2.1 3.7-6.7 54.1-97.5 19.7 10.9z"/><path fill="#e2e2e2" fill-rule="evenodd" d="m1054.3 829-58.2 104-38.7-21.5-15.4-8.7 3.2-5.8 12.3-22.1 15.5 8.6 42.6-76.1 38.7 21.6zM989.6 944.6l-57.9 103.6-19.3-10.8 57.9-103.6 19.3 10.8zM970.3 933.8l-57.9 103.6-19.4-10.7L950.9 923l19.4 10.8z"/><path fill="#e2e2e2" fill-rule="evenodd" d="M950.9 923 893 1026.7l-19.3-10.8 57.9-103.6 19.3 10.7zM931.6 912.3l-57.9 103.6-19.4-10.8 57.9-103.6 19.4 10.8zM888.7 888.4 830.8 992l-15.1-8.4-6.1-3.4-2.5-1.4L865 875.2l8.5 4.7 15.2 8.5z"/><path fill="#e2e2e2" d="m721.4 931 57.8-103.6 38.7 21.5L760 952.6zM680.4 908.3l57.8-103.7 19.3 10.8L699.7 919z"/><path fill="#e2e2e2" d="M661 897.5 719 793.8l19.3 10.8-57.9 103.6z"/><path fill="#e2e2e2" d="m622.4 876 57.8-103.7 38.7 21.5-57.8 103.7zM545 832.9l57.8-103.7 38.7 21.6-57.8 103.7z"/><path fill="#e2e2e2" d="m525.7 822.1 57.8-103.6 19.3 10.7L545 833z"/><path fill="#e2e2e2" fill-rule="evenodd" d="M509.3 787.6 498.6 807l-116-64.7 10.8-19.3 115.9 64.6z"/><path fill="#e2e2e2" fill-rule="evenodd" d="m541.6 729.6-32.3 58L393.4 723l32.2-58 116 64.6zM557.7 700.5l-16.1 29.1-116-64.6 16.1-29.1 116 64.6z"/><path fill="#e2e2e2" fill-rule="evenodd" d="m573.8 671.5-16.1 29-116-64.6 16.1-29 116 64.6z"/><path fill="#e2e2e2" fill-rule="evenodd" d="m584.5 652.2-10.7 19.3-116-64.6 10.7-19.3 116 64.6zM595.3 632.8l-10.8 19.4-116-64.6 10.8-19.4 116 64.6z"/><path fill="#e2e2e2" fill-rule="evenodd" d="m609.9 606.5-14.6 26.3-116-64.6 14.6-26.3 116 64.6zM620.2 587.8l-10.3 18.7-116-64.6 10.3-18.5 116 64.4zM868 389l-1.8 3.1-54 97.2-1.7 3.1-19.4-10.8 1.7-3.1 54.1-97.1 1.7-3.1L868 389z"/><path fill="#e2e2e2" fill-rule="evenodd" d="m887.2 399.7-1.7 3.1-54.1 97.2-1.7 3.1-19.2-10.7 1.7-3.1 54-97.2 1.8-3.1 19.2 10.7zM925.9 421.2l-1.8 3.1-54 97.2-1.7 3.1-19.3-10.7 1.8-3.1 54-97.2 1.8-3.1 19.2 10.7zM949.1 565.4l-1.7 3.1-1.7-1-17.6-9.8 1.7-3.1 54.1-97.1 1.7-3.1 17.5 9.7 1.8 1-1.7 3.1-54.1 97.2z"/><path fill="#e2e2e2" fill-rule="evenodd" d="m1024.7 476.1-1.7 3.1-54 97.2-1.7 3.1-19.9-11 1.7-3.1 54.1-97.2 1.7-3.1 19.8 11z"/><path fill="#e2e2e2" fill-rule="evenodd" d="m1043.4 486.4-1.8 3.1-54 97.2-1.8 3.1-18.5-10.3 1.7-3.1 54-97.2 1.7-3.1 18.7 10.3zM1119 528.5l-1.7 3.1-54 97.2-1.7 3.1-38.6-21.5 1.7-3.1 54-97.2 1.7-3.1 38.6 21.5z"/><path fill="#e2e2e2" fill-rule="evenodd" d="m1138.3 539.2-1.7 3.1-53.9 97.2-1.7 3.1-19.4-10.7 1.7-3.1 54-97.2 1.7-3.1 19.3 10.7zM961.9 723l-1.7 3.1-1.1-.6-17.6-9.9 1.7-3.1 53.9-97.2 1.7-3.1 17.7 9.8 1.1.6-1.7 3.1-54 97.3z"/><path fill="#e2e2e2" fill-rule="evenodd" d="m998.8 612.2-1.7 3.1-53.9 97.2-1.7 3.1-18.6-10.3 1.7-3.1 53.9-97.2 1.7-3.1 18.6 10.3z"/><path fill="#e2e2e2" fill-rule="evenodd" d="m980.2 601.9-1.7 3.1-53.9 97.2-1.7 3.1-19.5-10.8 1.8-3.1 53.9-97.2 1.8-3.1 19.3 10.8z"/><path fill="#e2e2e2" fill-rule="evenodd" d="m960.9 591.1-1.8 3.1-53.9 97.2-1.8 3.1-21.6-12 1.7-3.1 54-97.2 1.7-3.1 21.7 12zM746 471.8l-1.8 3-54 97.2-1.8 3.1-2.1-1.2-36.5-20.3 57.5-103.3 38.7 21.5zM676.8 468.8l-9.7 17.4-3.1-1.8-102.8-57-3-1.7 9.6-17.4 3.1 1.7 102.8 57 3.1 1.8z"/><path fill="#e2e2e2" fill-rule="evenodd" d="m684.3 455.2-7.5 13.6-3.1-1.8-102.8-57-3.1-1.7 7.6-13.6 2.1-3.8 3.1 1.7 102.8 57 3.1 1.8-2.2 3.8z"/><path fill="#e2e2e2" fill-rule="evenodd" d="m696.1 434-9.6 17.4-3.1-1.8-102.8-57-3.1-1.7 9.7-17.4 3.1 1.7 102.8 57 3 1.8z"/><path fill="#e2e2e2" fill-rule="evenodd" d="m705.8 416.6-9.7 17.4-3-1.8-102.8-57-3.1-1.7 9.7-17.4 3.1 1.7 102.7 57 3.1 1.8z"/><path fill="#e2e2e2" fill-rule="evenodd" d="m700.3 362.8 24 13.4 3.1 1.7-4.3 7.7-17.3 31-3.1-1.8-102.7-57-3.1-1.7 17.2-31 4.4-7.7 3 1.7 78.8 43.7z"/><path fill="#e2e2e2" fill-rule="evenodd" d="m728.8 311.7-1.8 3.1-26.7 48-78.8-43.7-3-1.7 28.4-51.1 81.9 45.4z"/><path fill="#e2e2e2" fill-rule="evenodd" d="m755.9 326.8-28.5 51.1-3.1-1.7-24-13.4 26.7-48 1.8-3.1 27.1 15.1zM1027.1 100.9l-1.7 3.1-59.6 107.5-1.7 3.1-19.4-10.8 1.7-3.1 59.7-107.5 1.7-3.1 19.3 10.8z"/><path fill="#e2e2e2" fill-rule="evenodd" d="m1046.5 111.6-1.7 3.1-59.6 107.6-1.7 3.1-19.4-10.8 1.7-3.1 59.6-107.5 1.7-3.1 19.4 10.7z"/><path fill="#e2e2e2" fill-rule="evenodd" d="m1065.9 122.4-1.7 3.1-59.6 107.5-1.8 3.1-19.3-10.7 1.7-3.1 59.6-107.6 1.7-3.1 19.4 10.8z"/><path fill="#e2e2e2" fill-rule="evenodd" d="m1085.3 133.2-1.8 3-59.6 107.6-1.7 3.1-19.4-10.8 1.8-3.1 59.6-107.5 1.7-3.1 19.4 10.8zM1317.7 262.3l-1.7 3.1-59.6 107.5-1.7 3.1-19.4-10.7 1.8-3.1 59.5-107.6 1.8-3.1 19.3 10.8z"/><path fill="#e2e2e2" fill-rule="evenodd" d="m1337.1 273-1.7 3.1-59.6 107.6-1.7 3.1-19.4-10.8 1.7-3.1 59.6-107.5 1.7-3.1 19.4 10.7z"/><path fill="#e2e2e2" fill-rule="evenodd" d="m1356.5 283.8-63 113.7-19.4-10.7 1.7-3.1 59.6-107.6 1.7-3.1 19.4 10.8zM1168.6 348.4l-1.7 3.1-58.8 106.1-1.7 3.1L1087 450l1.8-3.1 58.7-106.1 1.7-3.1 19.4 10.7z"/><path fill="#e2e2e2" fill-rule="evenodd" d="m1149.2 337.7-1.7 3.1-58.7 106.1-1.8 3.1-19.3-10.8 1.7-3.1 58.8-106.1 1.7-3.1 19.3 10.8zM1033 273.1l-1.7 3.1-58.8 106.1-1.7 3.1-19.4-10.8 1.7-3.1 58.8-106.1 1.7-3.1 19.4 10.8z"/><path fill="#e2e2e2" fill-rule="evenodd" d="m1013.6 262.3-1.7 3.1-58.8 106.1-1.7 3.1-19.4-10.8 1.7-3.1 58.8-106 1.7-3.1 19.4 10.7zM955.5 230l-1.8 3.1-58.8 106.1-1.7 3.1-19.3-10.8 1.7-3.1 58.8-106 1.7-3.1 19.4 10.7z"/><path fill="#e2e2e2" fill-rule="evenodd" d="m875.6 328.4-1.7 3.1-19.4-10.7-19.4-10.8 1.7-3.1 58.8-106 1.7-3.1 19.4 10.7 19.4 10.8-1.7 3.1-58.8 106z"/><path fill="#e2e2e2" fill-rule="evenodd" d="m897.3 197.8-1.7 3.1-58.8 106-1.7 3.1-19.4-10.8 1.7-3.1 58.8-106 1.8-3.1 19.3 10.8z"/><path fill="#e2e2e2" fill-rule="evenodd" d="m878 187-1.8 3.1-58.8 106-1.7 3.1-19.4-10.7 62.3-112.3L878 187zM793.8 256.5l-12.9 23.4-108.4-60.2 13-23.4 10.8-19.4 3.1 1.7 102.1 56.7 3.1 1.7-10.8 19.5zM826.2 198.1l-10.8 19.5-3.1-1.7-102.1-56.8-3.1-1.7 10.8-19.5 10.8-19.4 3.1 1.7 102.1 56.7 3.1 1.7-10.8 19.5z"/><path fill="#e2e2e2" fill-rule="evenodd" d="M847.8 159.2 837 178.6l-3.1-1.7-102.1-56.7-3.1-1.7L739.5 99l3.1 1.7 102.1 56.7 3.1 1.8z"/><path fill="#e2e2e2" fill-rule="evenodd" d="m858.6 139.7-10.8 19.5-3.1-1.8-102.1-56.7-3.1-1.7 10.8-19.5 3.1 1.7L855.5 138l3.1 1.7zM1453 110.1l-62.1 111.8-14.7-8.2-19.4-10.7-19.4-10.8-19.3-10.7-19.4-10.8 1.7-3.1 59-105.2 1.7-3.1 19.4 10.8 19.4 10.7 19.5 10.7 19.4 10.7 14.2 7.9z"/><path fill="#e2e2e2" fill-rule="evenodd" d="m1361.1 59.3-1.7 3.1-59 105.2-1.7 3.1-32.2-17.9 1.7-3.1 59-105.1 1.7-3.1 32.2 17.8z"/><path fill="#e2e2e2" fill-rule="evenodd" d="m1268.2 149.7-1.7 3.1-6.6-3.6-4.6-2.6 1.8-3.1 58.9-105 1.7-3.1 4.6 2.5 6.6 3.6-1.7 3.1-59 105.1z"/><path fill="#e2e2e2" fill-rule="evenodd" d="m1317.7 35.4-1.7 3.1-58.9 105-1.8 3.1-3.1-1.7 1.8-3.1 58.9-105.1 1.7-3 3.1 1.7z"/><path fill="#e2e2e2" fill-rule="evenodd" d="m1254 141.8-1.8 3.1-11.6-6.5-3.8-2.1 1.7-3.1 58.9-105 1.7-3.1 3.8 2.1 11.7 6.5-1.7 3-58.9 105.1zM577 163.8l-1.7 3.1-58.1-32.2 13-23.3L540.9 92l10.8-19.4 10.8-19.5 3.1 1.8 54.9 30.5-10.8 19.4-10.7 19.4-10.8 19.4-11.2 20.2zM229.4 35.6l-1.8 3.1-56.4 99.6-1.8 3.1-16.3-9.1 1.8-3.1 56.4-99.6 1.7-3.1 16.4 9.1z"/><path fill="#e2e2e2" fill-rule="evenodd" d="m195 151.5-1.8 3.1-4.5-2.5-19.3-10.7 1.8-3.1 56.4-99.6 1.8-3.1L248.1 46l5 2.8-1.7 3.1-56.4 99.6z"/><path fill="#e2e2e2" fill-rule="evenodd" d="m272.5 59.5-1.7 3.1-56.5 99.7-1.7 3-19.4-10.7 1.8-3.1 56.4-99.6 1.7-3.1 19.4 10.7z"/><path fill="#e2e2e2" fill-rule="evenodd" d="m290.1 69.3-1.8 3.1-55.7 100-1.7 3.1-18.3-10.2 1.7-3 56.5-99.7 1.7-3.1 17.6 9.8z"/><path fill="#e2e2e2" fill-rule="evenodd" d="m309.4 80-59.2 106.2-18.3-10.1-1-.6 1.7-3.1 55.7-100 1.8-3.1 1.7 1 17.6 9.7zM271.3 193.9l-1.7 3.1-18.3-10.2-1.1-.6L309.4 80l1.8 1 17.5 9.8-1.7 3.1-55.7 100z"/><path fill="#e2e2e2" fill-rule="evenodd" d="m348.1 101.5-59.2 106.2-18.3-10.1-1-.6 1.7-3.1 55.7-100 1.7-3.1 1.8 1 17.6 9.7zM387.2 123.2l-1.7 3.1-55.8 100-1.7 3.1-19.7-10.9 1.7-3.1 6.7-12 49-88 1.7-3.1 19.8 10.9z"/><path fill="#e2e2e2" fill-rule="evenodd" d="m406.2 133.8-1.7 3.1-55.8 100-1.7 3.1-19-10.6 1.7-3.1 55.8-100 1.7-3.1 19 10.6z"/><path fill="#e2e2e2" fill-rule="evenodd" d="m425.5 144.5-1.7 3.1-55.7 100-1.8 3.1L347 240l1.7-3.1 55.8-100 1.7-3.1 19.3 10.7z"/><path fill="#e2e2e2" fill-rule="evenodd" d="m444.8 155.2-1.7 3.1-55.7 100-1.7 3.1-19.4-10.7 1.8-3.1 55.7-100 1.7-3.1 19.3 10.7z"/><path fill="#e2e2e2" fill-rule="evenodd" d="m426.5 279.1-6 1.7-34.8-19.4 1.7-3.1 55.7-100 1.7-3.1 38.7 21.5-1.7 3.1-55.3 99.3zM600 241.4l-12.8 22.9-3.1-1.7-101.7-56.5 11-19.8 1.7-3.1L600 241.4z"/><path fill="#e2e2e2" fill-rule="evenodd" d="m582.9 272-21.5 38.6-3.1-1.7-101.7-56.5 21.5-38.6 4.3-7.7 101.7 56.5 3.1 1.7-4.3 7.7z"/><path fill="#e2e2e2" fill-rule="evenodd" d="m561.4 310.6-10.8 19.5-3.1-1.8-101.8-56.5 10.9-19.4 101.7 56.5 3.1 1.7z"/><path fill="#e2e2e2" fill-rule="evenodd" d="m550.6 330.1-10.7 19.1-3.1-1.7L435.1 291l10.6-19.2 101.8 56.5 3.1 1.8z"/><path fill="#e2e2e2" fill-rule="evenodd" d="m539.9 349.2-10.8 19.5-3.1-1.7-101.8-56.5 10.9-19.5 101.7 56.5 3.1 1.7z"/><path fill="#e2e2e2" fill-rule="evenodd" d="m529.1 368.7-10.7 19.1-3.1-1.7-101.7-56.5 10.6-19.1L526 367l3.1 1.7z"/><path fill="#e2e2e2" fill-rule="evenodd" d="m518.4 387.8-8.7 15.7-3.1-1.7-101.8-56.5 8.8-15.7 101.7 56.5 3.1 1.7z"/><path fill="#e2e2e2" fill-rule="evenodd" d="m509.7 403.5-8.4 15.1-3.1-1.7-101.8-56.5 8.4-15.1 101.8 56.5 3.1 1.7z"/><path fill="#e2e2e2" fill-rule="evenodd" d="m496.9 426.4-4 7.3-3.1-1.8-46.8-26-18.8-10.4-17.9-9.9-18.3-10.2 4.1-7.2 4.3-7.8 101.8 56.5 3.1 1.7-4.4 7.8z"/><path fill="#e2e2e2" fill-rule="evenodd" d="m492.9 433.7-8.2 14.7-3.1-1.7-46.8-26 8.2-14.8 46.8 26 3.1 1.8z"/><path fill="#e2e2e2" fill-rule="evenodd" d="m484.7 448.4-9.3 16.6-49.9-27.7 1.7-3.1 7.6-13.5 46.8 26 3.1 1.7z"/><path fill="#e2e2e2" fill-rule="evenodd" d="m434.8 420.7-7.6 13.5-1.7 3.1-18.8-10.4 1.8-3.1 15.7-28.3 18.8 10.4-8.2 14.8z"/><path fill="#e2e2e2" fill-rule="evenodd" d="m424.2 395.5-15.7 28.3-1.8 3.1-17.9-9.9 1.7-3.1 15.8-28.3 17.9 9.9z"/><path fill="#e2e2e2" fill-rule="evenodd" d="m406.3 385.6-15.8 28.3-1.7 3.1-18.3-10.2 1.8-3.1 14.7-26.5 1-1.8 18.3 10.2zM415.8 298.4l-55.1 98.9-1.8 3.1-23.2-12.9 1.7-3.1 55.6-99.7 1.7-3.1 19.3 10.8 1.8 6zM359.9 262.3l-1.8 3.1-55.5 99.7-1.7 3.1-19.4-10.8 1.8-3 55.5-99.8 1.7-3 19.4 10.7z"/><path fill="#e2e2e2" fill-rule="evenodd" d="m340.5 251.6-1.7 3-55.5 99.8-1.8 3-19.3-10.7 1.7-3.1 48.9-87.7 6.6-12 1.8-3.1 19.3 10.8z"/><path fill="#e2e2e2" fill-rule="evenodd" d="m321.2 240.8-1.8 3.1-6.6 12-48.9 87.7-1.7 3.1-19.4-10.7 1.8-3.1 55.5-99.7 1.7-3.1 19.4 10.7z"/><path fill="#e2e2e2" fill-rule="evenodd" d="m301.8 230.1-1.7 3.1-55.5 99.7-1.8 3.1-19.3-10.8 1.7-3.1 55.6-99.7 1.7-3.1 19.3 10.8z"/><path fill="#e2e2e2" fill-rule="evenodd" d="m225.2 322.1-1.7 3.1-19.4-10.7-.9-.5 1.7-3.1 48.3-86.7 7.2-13.1 1.8-3.1.9.6 19.4 10.7-1.7 3.1-55.6 99.7z"/><path fill="#e2e2e2" fill-rule="evenodd" d="m262.2 208-1.8 3.1-7.2 13.1-48.3 86.7-1.7 3.1-20.2-11.2 1.8-3.1 55.5-99.7 1.7-3.1 20.2 11.1z"/><path fill="#e2e2e2" fill-rule="evenodd" d="m184.8 299.7-1.8 3.1-17.6-9.8-2.5-1.4 1.7-3.1 55.6-99.7 1.7-3.1 2.5 1.4 17.6 9.8-1.7 3.1-55.5 99.7z"/><path fill="#e2e2e2" fill-rule="evenodd" d="m221.9 185.7-1.7 3.1-55.6 99.7-1.7 3.1-20.1-11.1 1.7-3.1 55.6-99.8 1.7-3.1 20.1 11.2z"/><path fill="#e2e2e2" fill-rule="evenodd" d="m201.8 174.5-1.7 3.1-55.6 99.8-1.7 3.1-19.9-11.1 1.7-3.1 55.8-99.6 1.8-3.1 19.6 10.9z"/><path fill="#e2e2e2" fill-rule="evenodd" d="m182.2 163.6-1.8 3.1-55.8 99.6-1.7 3.1-18.6-10.3 1.7-3.1 49.6-88.4 6.3-11.2 1.7-3.1 18.6 10.3z"/><path fill="#e2e2e2" fill-rule="evenodd" d="M155.6 167.6 106 256l-1.7 3.1-18-10L88 246l55.9-99.6 1.7-3.1 18 10-1.7 3.1-6.3 11.2z"/><path fill="#e2e2e2" fill-rule="evenodd" d="m145.6 143.3-1.7 3.1L88 246l-1.7 3.1-19.2-10.6 1.7-3.1 55.9-99.6 1.7-3.1 19.2 10.6z"/><path fill="#e2e2e2" fill-rule="evenodd" d="m126.4 132.7-1.7 3.1-55.9 99.6-1.7 3.1-19.2-10.7 1.7-3.1 55.8-99.6 1.8-3.1 19.2 10.7z"/><path fill="#e2e2e2" fill-rule="evenodd" d="m107.2 122-1.8 3.1-55.8 99.6-1.7 3.1-19.2-10.7 1.7-3.1 55.8-99.6 1.8-3.1 19.2 10.7zM101.7 308.3 45.3 409.4l-16.6-9.2 56.4-101.1 16.6 9.2zM121.1 319 64.7 420.1l-19.4-10.7 56.4-101.1 12.6 7 6.8 3.7zM179.1 351.2l-56.3 101.1-19.4-10.7 56.4-101.1 19.3 10.7zM283.7 536.6l-6 1.7-19.3-10.7 56.1-101.2 22.1 12.2 1.2.7-54.1 97.3zM442.8 524.5l-10.7 19.3-104.9-58.2 10.7-19.3 11.5-20.6 103.7 57.6 1.1.6-11.4 20.6zM421.3 563.2l-6.4 11.6L310 516.6l6.5-11.7 10.7-19.3 104.9 58.2-10.8 19.4zM135.7 474.7 79.6 575.6l-19.4-10.8L116.3 464l19.4 10.7zM297.4 786l-4.3 7.6-105.3-58.5 4.3-7.7 16.4-29.5 105.3 58.6-16.4 29.5z"/><path fill="#e2e2e2" fill-rule="evenodd" d="m286.6 805.4-6.4 11.4-105.3-58.5 6.4-11.5 6.5-11.7 105.3 58.5-6.5 11.8zM275.8 824.8l-8.5 15.2L162 781.5l8.5-15.3 4.4-7.9 105.3 58.5-4.4 8zM243.4 882.9l-4.1 7.4L134 831.7l4.2-7.3 10.7-19.4 105.3 58.5-10.8 19.4z"/><path fill="#e2e2e2" fill-rule="evenodd" d="m232.6 902.3-10.7 19.4-105.3-58.6 10.8-19.3 6.6-12.1 105.3 58.6-6.7 12zM211.1 941.1l-7 12.5-103.7-61.3 5.4-9.8 10.8-19.4 105.3 58.6-10.8 19.4z"/><path fill="#e2e2e2" fill-rule="evenodd" d="m197 966.5-2.3 4.1L89.4 912l11-19.7 103.7 61.3-7.1 12.9zM79.9 901.8l-2.1 3.8-19.5-10.9-19.4-10.8 56.3-101.1 19.4 10.8 19.5 10.8-54.2 97.4zM95.2 782.8 38.9 883.9l-19.5-10.8L0 862.3l56.4-101.2 19.4 10.8 19.4 10.9z"/></svg>